<svg width="70" height="70" viewBox="0 0 70 70" fill="none" xmlns="http://www.w3.org/2000/svg">
<rect x="1.5" y="1.5" width="67" height="67" rx="15.5" fill="white"/>
<rect x="1.5" y="1.5" width="67" height="67" rx="15.5" stroke="#FB923C" stroke-width="3"/>
<g filter="url(#filter0_i_1_1196)">
<path fill-rule="evenodd" clip-rule="evenodd" d="M26.9622 14.2H42.9622L58.4288 41.9333H42.4288L26.9622 14.2Z" fill="#FFCF48"/>
</g>
<g filter="url(#filter1_i_1_1196)">
<path fill-rule="evenodd" clip-rule="evenodd" d="M19.571 54.7332C21.89 50.4264 27.0376 41.9332 27.0376 41.9332H58.5046L50.5043 55.7999H19.571C19.571 55.7999 19.4011 55.0486 19.571 54.7332Z" fill="#4587F4"/>
</g>
<path fill-rule="evenodd" clip-rule="evenodd" d="M26.9622 14.2L34.9622 28.6L19.4955 55.7999L11.4955 41.9333L26.9622 14.2Z" fill="#1BA261"/>
<path fill-rule="evenodd" clip-rule="evenodd" d="M27.3704 41.9622L34.1334 55.2538H19.822L27.3704 41.9622Z" fill="url(#paint0_linear_1_1196)"/>
<path fill-rule="evenodd" clip-rule="evenodd" d="M27.3704 41.9622L34.1334 55.2538H19.822L27.3704 41.9622Z" fill="url(#paint1_linear_1_1196)"/>
<path fill-rule="evenodd" clip-rule="evenodd" d="M26.9767 14.2179L31.6242 34.4601L34.9867 28.5811L26.9767 14.2179Z" fill="url(#paint2_linear_1_1196)"/>
<defs>
<filter id="filter0_i_1_1196" x="26.9622" y="14.2" width="32.0667" height="28.7333" filterUnits="userSpaceOnUse" color-interpolation-filters="sRGB">
<feFlood flood-opacity="0" result="BackgroundImageFix"/>
<feBlend mode="normal" in="SourceGraphic" in2="BackgroundImageFix" result="shape"/>
<feColorMatrix in="SourceAlpha" type="matrix" values="0 0 0 0 0 0 0 0 0 0 0 0 0 0 0 0 0 0 127 0" result="hardAlpha"/>
<feOffset dx="0.6" dy="1"/>
<feGaussianBlur stdDeviation="2"/>
<feComposite in2="hardAlpha" operator="arithmetic" k2="-1" k3="1"/>
<feColorMatrix type="matrix" values="0 0 0 0 1 0 0 0 0 0.88914 0 0 0 0 0.556562 0 0 0 1 0"/>
<feBlend mode="normal" in2="shape" result="effect1_innerShadow_1_1196"/>
</filter>
<filter id="filter1_i_1_1196" x="19.4955" y="40.9332" width="39.6091" height="14.8667" filterUnits="userSpaceOnUse" color-interpolation-filters="sRGB">
<feFlood flood-opacity="0" result="BackgroundImageFix"/>
<feBlend mode="normal" in="SourceGraphic" in2="BackgroundImageFix" result="shape"/>
<feColorMatrix in="SourceAlpha" type="matrix" values="0 0 0 0 0 0 0 0 0 0 0 0 0 0 0 0 0 0 127 0" result="hardAlpha"/>
<feOffset dx="0.6" dy="-1"/>
<feGaussianBlur stdDeviation="2"/>
<feComposite in2="hardAlpha" operator="arithmetic" k2="-1" k3="1"/>
<feColorMatrix type="matrix" values="0 0 0 0 0.580392 0 0 0 0 0.713726 0 0 0 0 0.909804 0 0 0 1 0"/>
<feBlend mode="normal" in2="shape" result="effect1_innerShadow_1_1196"/>
</filter>
<linearGradient id="paint0_linear_1_1196" x1="14.9037" y1="35.8057" x2="14.9037" y2="56.5322" gradientUnits="userSpaceOnUse">
<stop stop-color="#155ACA"/>
<stop offset="1" stop-color="#2F71DD" stop-opacity="0.01"/>
</linearGradient>
<linearGradient id="paint1_linear_1_1196" x1="19.3023" y1="50.1541" x2="23.9942" y2="53.2379" gradientUnits="userSpaceOnUse">
<stop stop-color="#002D77" stop-opacity="0.8018"/>
<stop offset="1" stop-color="#2F71DD" stop-opacity="0.01"/>
</linearGradient>
<linearGradient id="paint2_linear_1_1196" x1="26.7555" y1="24.9129" x2="36.2989" y2="30.1714" gradientUnits="userSpaceOnUse">
<stop stop-color="#1B935A"/>
<stop offset="1" stop-color="#118B50" stop-opacity="0.01"/>
</linearGradient>
</defs>
</svg>
