<svg width="66" height="66" viewBox="0 0 66 66" fill="none" xmlns="http://www.w3.org/2000/svg">
<rect x="0.5" y="0.5" width="65" height="65" rx="14.5" fill="white"/>
<rect x="0.5" y="0.5" width="65" height="65" rx="14.5" stroke="#CBD5E1"/>
<path fill-rule="evenodd" clip-rule="evenodd" d="M33 35.9946C33.1894 36.2252 40.2752 44.8004 46.9723 44.8004C53.7607 44.8004 57.6039 37.9653 57.6039 37.9653C60.2493 33.2234 57.9037 28.5807 57.9037 28.5807C57.9037 28.5807 54.5095 21.1995 46.9723 21.1995C39.5423 21.1995 33.1793 29.8606 33 30.1066C32.8208 29.8606 26.4578 21.1995 19.0278 21.1995C11.4908 21.1995 8.09636 28.5807 8.09636 28.5807C8.09636 28.5807 5.75072 33.2234 8.39599 37.9653C8.39599 37.9653 12.2395 44.8004 19.0278 44.8004C25.7249 44.8004 32.8107 36.2252 33 35.9946ZM19.3127 25.3211C14.6701 25.3211 12.6941 29.0993 12.6941 29.0993C12.6941 29.0993 10.5703 32.4827 12.6941 36.8294C14.8183 41.1761 19.2391 40.7808 19.2391 40.7808C19.2391 40.7808 21.6444 41.1264 25.496 37.8108C26.8308 36.6618 28.3392 35.0731 29.9815 32.8779C29.9815 32.8779 23.9559 25.3211 19.3127 25.3211ZM46.9523 25.3211C51.595 25.3211 53.571 29.0993 53.571 29.0993C53.571 29.0993 55.6946 32.4827 53.571 36.8294C51.4467 41.1761 47.0259 40.7808 47.0259 40.7808C47.0259 40.7808 44.6207 41.1264 40.769 37.8108C39.4342 36.6618 37.9258 35.0731 36.2835 32.8779C36.2835 32.8779 42.3091 25.3211 46.9523 25.3211Z" fill="url(#paint0_linear_1_1199)"/>
<defs>
<linearGradient id="paint0_linear_1_1199" x1="30.1372" y1="45.1995" x2="34.1373" y2="21.1995" gradientUnits="userSpaceOnUse">
<stop stop-color="#FB923C"/>
<stop offset="0.496353" stop-color="#EF4444"/>
<stop offset="1" stop-color="#701A75"/>
</linearGradient>
</defs>
</svg>
