<svg width="66" height="66" viewBox="0 0 66 66" fill="none" xmlns="http://www.w3.org/2000/svg">
<rect x="0.5" y="0.5" width="65" height="65" rx="14.5" fill="white"/>
<rect x="0.5" y="0.5" width="65" height="65" rx="14.5" stroke="#CBD5E1"/>
<path fill-rule="evenodd" clip-rule="evenodd" d="M24.1024 44.1951C24.1024 44.1951 27.2922 40.6729 32.6085 40.6729C37.9248 40.6729 41.52 44.1951 41.52 44.1951L32.8112 53.7198L24.1024 44.1951ZM19.235 39.4957C19.235 39.4957 24.8462 33.8738 32.811 33.8215C40.7758 33.7687 46.555 39.4957 46.555 39.4957L51.5987 33.821C51.5987 33.821 43.4974 26.3085 32.811 26.3607C22.1246 26.4135 13.9811 34.1367 13.9811 34.1367L19.235 39.4957ZM9.67288 28.9354C9.67288 28.9354 20.1177 19.6885 32.811 19.6885C45.5044 19.6885 56.0119 28.9354 56.0119 28.9354L61.0557 23.4186C61.0557 23.4186 48.6041 12.2282 32.7902 12.2805C16.9758 12.3333 4.94434 23.5765 4.94434 23.5765L9.67288 28.9354Z" fill="url(#paint0_linear_1_1202)"/>
<defs>
<linearGradient id="paint0_linear_1_1202" x1="4.94434" y1="12.2803" x2="4.94434" y2="53.7198" gradientUnits="userSpaceOnUse">
<stop stop-color="#19DEFE"/>
<stop offset="1" stop-color="#1E5BEF"/>
</linearGradient>
</defs>
</svg>
